# xmcd
#
# Track frame offsets:
#	150
#	20847
#	39020
#	59415
#	75557
#	91570
#	104092
#	125882
#	143317
#	157475
#	175642
#	191037
#	204340
# Disc length: 2906 seconds
# Revision: 2
# Processed by: cddbd v1.5.2PL0 Copyright (c) Steve Scherf et al.
#
# Submitted via: libkcddb 0.31
#
DISCID=ab0b580d
DTITLE=Alberto Plaza - M sica y Versos de Amor
DYEAR=1900
DGENRE=Unknown
TTITLE0=Peque o Rayo de Sol
TTITLE1=Canci n por Encuentro
TTITLE2=Ese fue tu error
TTITLE3=Quizas
TTITLE4=Te Convido
TTITLE5=Gigantes Peque os
TTITLE6=Por una sonrisa
TTITLE7=Mi Coraz n
TTITLE8=Acercate mas
TTITLE9=Si Supieras Amor
TTITLE10=El Aguacate
TTITLE11=El Aguacate ( en vivo )
TTITLE12=Canci n contra la tristeza
EXTD=
EXTT0=
EXTT1=
EXTT2=
EXTT3=
EXTT4=
EXTT5=
EXTT6=
EXTT7=
EXTT8=
EXTT9=
EXTT10=
EXTT11=
EXTT12=
PLAYORDER=
